<svg width="218" height="240" viewBox="0 0 218 240" fill="none" xmlns="http://www.w3.org/2000/svg">
<g filter="url(#filter0_d_102_11615)">
<rect x="87.1865" width="120" height="120" rx="60" transform="rotate(30 87.1865 0)" fill="white"/>
<path d="M89.5483 79.942C87.7516 83.054 83.7844 84.117 80.6725 82.3203C77.5605 80.5236 76.4975 76.5564 78.2942 73.4445C80.0909 70.3325 84.0581 69.2695 87.17 71.0662L92.7971 74.315L89.5483 79.942ZM92.3619 81.5664C94.1585 78.4545 98.1258 77.3915 101.238 79.1881C104.35 80.9848 105.413 84.9521 103.616 88.064L95.494 102.132C93.6973 105.244 89.7301 106.307 86.6182 104.51C83.5062 102.713 82.4432 98.746 84.2399 95.6341L92.3619 81.5664Z" fill="#E01E5A"/>
<path d="M111.034 62.2218C107.922 60.4251 106.859 56.4579 108.655 53.3459C110.452 50.234 114.419 49.171 117.531 50.9676C120.643 52.7643 121.706 56.7316 119.91 59.8435L116.661 65.4706L111.034 62.2218ZM109.385 65.0779C112.497 66.8746 113.56 70.8419 111.763 73.9538C109.966 77.0657 105.999 78.1288 102.887 76.3321L88.7768 68.1855C85.6649 66.3888 84.6019 62.4216 86.3986 59.3096C88.1952 56.1977 92.1625 55.1347 95.2744 56.9314L109.385 65.0779Z" fill="#36C5F0"/>
<path d="M128.687 83.7251C130.484 80.6131 134.451 79.5501 137.563 81.3468C140.675 83.1435 141.738 87.1107 139.941 90.2227C138.144 93.3346 134.177 94.3976 131.065 92.6009L125.438 89.3521L128.687 83.7251ZM125.873 82.1007C124.077 85.2126 120.109 86.2756 116.998 84.479C113.886 82.6823 112.823 78.715 114.619 75.6031L122.766 61.4928C124.563 58.3809 128.53 57.3178 131.642 59.1145C134.754 60.9112 135.817 64.8784 134.02 67.9904L125.873 82.1007Z" fill="#2EB67D"/>
<path d="M107.226 101.402C110.338 103.199 111.401 107.166 109.605 110.278C107.808 113.39 103.841 114.453 100.729 112.657C97.6168 110.86 96.5537 106.893 98.3504 103.781L101.599 98.1536L107.226 101.402ZM108.851 98.5889C105.739 96.7922 104.676 92.8249 106.472 89.713C108.269 86.6011 112.236 85.538 115.348 87.3347L129.459 95.4813C132.571 97.278 133.634 101.245 131.837 104.357C130.04 107.469 126.073 108.532 122.961 106.735L108.851 98.5889Z" fill="#ECB22E"/>
<rect x="87.3027" y="0.43361" width="119.365" height="119.365" rx="59.6826" transform="rotate(30 87.3027 0.43361)" stroke="#D3D3D3" stroke-width="0.634849"/>
</g>
<defs>
<filter id="filter0_d_102_11615" x="-21.4735" y="0" width="261.243" height="261.243" filterUnits="userSpaceOnUse" color-interpolation-filters="sRGB">
<feFlood flood-opacity="0" result="BackgroundImageFix"/>
<feColorMatrix in="SourceAlpha" type="matrix" values="0 0 0 0 0 0 0 0 0 0 0 0 0 0 0 0 0 0 127 0" result="hardAlpha"/>
<feOffset dy="48.66"/>
<feGaussianBlur stdDeviation="24.33"/>
<feComposite in2="hardAlpha" operator="out"/>
<feColorMatrix type="matrix" values="0 0 0 0 0.922188 0 0 0 0 0.922188 0 0 0 0 0.945833 0 0 0 1 0"/>
<feBlend mode="normal" in2="BackgroundImageFix" result="effect1_dropShadow_102_11615"/>
<feBlend mode="normal" in="SourceGraphic" in2="effect1_dropShadow_102_11615" result="shape"/>
</filter>
</defs>
</svg>
