<svg width="310" height="48" viewBox="0 0 310 48" fill="none" xmlns="http://www.w3.org/2000/svg">
<g clip-path="url(#clip0_1_153)">
<path d="M36.2739 0.960205H18.5257C15.3593 0.960205 12.4889 2.26389 10.4228 4.35476C8.35679 6.44564 7.0686 9.3506 7.0686 12.5551C7.0686 18.4226 11.4018 23.2802 17.0212 24.0232C17.2755 24.0578 17.3798 23.7026 17.1483 23.5932C15.6837 22.9 14.6991 21.8901 14.7162 20.2255C14.737 18.102 16.4862 16.4104 18.5845 16.4104H36.2739C40.4894 16.4104 43.9062 12.9525 43.9062 8.68629C43.9062 4.42005 40.4894 0.960205 36.2739 0.960205ZM21.0072 11.2591C19.6014 11.2591 18.4631 10.1071 18.4631 8.68436C18.4631 7.26164 19.6014 6.10964 21.0072 6.10964C22.413 6.10964 23.5513 7.26164 23.5513 8.68436C23.5513 10.1071 22.413 11.2591 21.0072 11.2591ZM28.6396 11.2591C27.2338 11.2591 26.0955 10.1071 26.0955 8.68436C26.0955 7.26164 27.2338 6.10964 28.6396 6.10964C30.0454 6.10964 31.1837 7.26164 31.1837 8.68436C31.1837 10.1071 30.0454 11.2591 28.6396 11.2591ZM36.272 11.2591C34.8662 11.2591 33.7278 10.1071 33.7278 8.68436C33.7278 7.26164 34.8662 6.10964 36.272 6.10964C37.6778 6.10964 38.8161 7.26164 38.8161 8.68436C38.8161 10.1071 37.6778 11.2591 36.272 11.2591Z" fill="#4242F0"/>
<path d="M27.8147 23.5951C27.5605 23.5606 27.4562 23.9158 27.6876 24.0252C29.1523 24.7183 30.1369 25.7283 30.1198 27.3929C30.099 29.5164 28.3498 31.2079 26.2515 31.2079H8.56402C4.34847 31.2079 0.931641 34.6659 0.931641 38.9321C0.931641 43.1983 4.34847 46.6562 8.56402 46.6562H26.3103C29.4767 46.6562 32.3471 45.3526 34.4132 43.2617C36.4792 41.1708 37.7674 38.2659 37.7674 35.0614C37.7674 29.1939 33.4342 24.3362 27.8147 23.5932V23.5951ZM8.56402 41.5068C7.1582 41.5068 6.01989 40.3548 6.01989 38.9321C6.01989 37.5094 7.1582 36.3574 8.56402 36.3574C9.96983 36.3574 11.1081 37.5094 11.1081 38.9321C11.1081 40.3548 9.96983 41.5068 8.56402 41.5068ZM16.1964 41.5068C14.7906 41.5068 13.6523 40.3548 13.6523 38.9321C13.6523 37.5094 14.7906 36.3574 16.1964 36.3574C17.6022 36.3574 18.7405 37.5094 18.7405 38.9321C18.7405 40.3548 17.6022 41.5068 16.1964 41.5068ZM23.8288 41.5068C22.423 41.5068 21.2846 40.3548 21.2846 38.9321C21.2846 37.5094 22.423 36.3574 23.8288 36.3574C25.2346 36.3574 26.3729 37.5094 26.3729 38.9321C26.3729 40.3548 25.2346 41.5068 23.8288 41.5068Z" fill="#4242F0"/>
<path d="M67.0237 29.7584H70.1712C70.6094 29.7584 70.9718 30.0982 71.0154 30.5398C71.3759 34.1513 73.7417 36.3651 78.7502 36.3651C83.1593 36.3651 86.0999 34.7465 86.0999 31.3788C86.0999 27.5715 83.9808 26.5212 77.7998 25.471C70.581 24.2038 66.8625 22.0592 66.8625 16.5891C66.8625 11.119 71.2279 7.48828 78.4467 7.48828C85.2557 7.48828 89.4105 10.7964 89.936 15.8691C89.9873 16.3721 89.587 16.808 89.0861 16.808H85.9709C85.5422 16.808 85.1874 16.4835 85.1286 16.0534C84.6808 12.7587 82.0589 11.1632 78.274 11.1632C74.123 11.1632 71.7458 13.0448 71.7458 15.9324C71.7458 19.4768 74.123 20.1776 80.175 21.27C85.7528 22.1897 90.9833 23.5894 90.9833 30.9392C90.9833 36.4092 86.7013 40.1283 78.663 40.1283C70.6246 40.1283 66.6424 36.3094 66.17 30.6896C66.1283 30.1884 66.5248 29.7584 67.0218 29.7584H67.0237Z" fill="#222240"/>
<path d="M93.7911 44.1833C93.7911 43.7072 94.1724 43.3213 94.6429 43.3213H96.2555C98.2874 43.3213 99.3252 42.4899 100.059 40.6544L101.054 38.072L92.5617 17.7872C92.3246 17.2189 92.7363 16.5891 93.3453 16.5891H96.3561C96.7109 16.5891 97.0277 16.8118 97.1529 17.1478L102.177 30.6781L103.127 33.4333H103.302L104.209 30.6781L108.936 17.1632C109.056 16.8195 109.378 16.5891 109.739 16.5891H112.611C113.209 16.5891 113.62 17.1939 113.406 17.7584L104.339 41.7469C102.869 45.7712 100.579 47.0403 96.9897 47.0403H94.641C94.1705 47.0403 93.7892 46.6544 93.7892 46.1782V44.1814L93.7911 44.1833Z" fill="#222240"/>
<path d="M116.542 16.5889H119.109C119.566 16.5889 119.942 16.9557 119.959 17.4184L120.099 21.1835H120.361C121.701 17.9022 124.727 16.2395 128.098 16.2395C132.769 16.2395 136.271 18.9083 136.271 25.9969V38.8725C136.271 39.3486 135.89 39.7345 135.419 39.7345H132.666C132.196 39.7345 131.815 39.3486 131.815 38.8725V26.9147C131.815 22.2913 130.2 20.0545 126.728 19.9624C123.069 19.8645 120.098 22.9595 120.098 26.6632V38.8725C120.098 39.3486 119.716 39.7345 119.246 39.7345H116.54C116.07 39.7345 115.688 39.3486 115.688 38.8725V17.451C115.688 16.9749 116.07 16.5889 116.54 16.5889H116.542Z" fill="#222240"/>
<path d="M139.982 28.1838C139.982 21.0088 144.393 16.2395 151.268 16.2395C156.426 16.2395 160.306 19.1656 161.09 23.6027C161.181 24.123 160.769 24.5973 160.247 24.5973H157.569C157.182 24.5973 156.851 24.3304 156.747 23.9541C156.03 21.3544 153.863 20.0046 151.139 20.0046C146.901 20.0046 144.524 23.2859 144.524 28.2299C144.524 33.4369 147.119 36.3669 151.095 36.3669C154.163 36.3669 156.275 34.6965 156.859 32.1409C156.948 31.7493 157.288 31.467 157.686 31.467H160.342C160.862 31.467 161.272 31.9374 161.187 32.4577C160.414 37.1425 156.436 40.132 151.095 40.132C144.396 40.132 139.984 35.3627 139.984 28.1877L139.982 28.1838Z" fill="#222240"/>
<path d="M165.757 9.07788H168.462C168.933 9.07788 169.314 9.4638 169.314 9.93996V21.1835H169.572C170.915 17.9022 173.939 16.2395 177.313 16.2395C181.983 16.2395 185.482 18.9083 185.482 25.9969V38.8724C185.482 39.3486 185.101 39.7345 184.63 39.7345H181.881C181.41 39.7345 181.029 39.3486 181.029 38.8724V26.9147C181.029 22.2913 179.415 20.0545 175.943 19.9624C172.283 19.8644 169.312 22.9595 169.312 26.6632V38.8724C169.312 39.3486 168.931 39.7345 168.46 39.7345H165.755C165.284 39.7345 164.903 39.3486 164.903 38.8724V9.93996C164.903 9.4638 165.284 9.07788 165.755 9.07788H165.757Z" fill="#222240"/>
<path d="M191.676 16.5889H193.996C194.45 16.5889 194.823 16.948 194.846 17.4049L195.019 20.7016H195.233C196.227 17.7256 198.823 16.2817 201.849 16.2817C202.037 16.2817 202.211 16.2875 202.378 16.2971C202.831 16.3221 203.188 16.6984 203.188 17.1592V19.7109C203.188 20.1928 202.799 20.5768 202.323 20.5729C202.154 20.5729 201.98 20.5729 201.805 20.5729C197.741 20.5729 195.451 22.7176 195.233 26.523V38.8744C195.233 39.3505 194.852 39.7365 194.381 39.7365H191.676C191.206 39.7365 190.824 39.3505 190.824 38.8744V17.451C190.824 16.9749 191.206 16.5889 191.676 16.5889Z" fill="#222240"/>
<path d="M204.674 28.228C204.674 21.0971 208.952 16.2395 215.869 16.2395C222.786 16.2395 227.025 20.8341 227.025 28.1838C227.025 35.5336 222.743 40.1281 215.869 40.1281C208.996 40.1281 204.674 35.4894 204.674 28.228ZM222.485 28.1838C222.485 22.9768 219.977 19.9585 215.869 19.9585C211.762 19.9585 209.21 22.8904 209.21 28.228C209.21 33.5656 211.806 36.3649 215.869 36.3649C219.933 36.3649 222.485 33.4331 222.485 28.1838Z" fill="#222240"/>
<path d="M231.585 16.5889H234.152C234.609 16.5889 234.985 16.9557 235.002 17.4184L235.142 21.1835H235.404C236.744 17.9022 239.77 16.2395 243.141 16.2395C247.812 16.2395 251.314 18.9083 251.314 25.9969V38.8725C251.314 39.3486 250.933 39.7345 250.462 39.7345H247.709C247.239 39.7345 246.858 39.3486 246.858 38.8725V26.9147C246.858 22.2913 245.243 20.0545 241.771 19.9624C238.111 19.8645 235.141 22.9595 235.141 26.6632V38.8725C235.141 39.3486 234.759 39.7345 234.289 39.7345H231.583C231.113 39.7345 230.731 39.3486 230.731 38.8725V17.451C230.731 16.9749 231.113 16.5889 231.583 16.5889H231.585Z" fill="#222240"/>
<path d="M260.257 16.5891H257.508C257.038 16.5891 256.656 16.9751 256.656 17.4512V38.8726C256.656 39.3487 257.038 39.7347 257.508 39.7347H260.257C260.728 39.7347 261.109 39.3487 261.109 38.8726V17.4512C261.109 16.9751 260.728 16.5891 260.257 16.5891Z" fill="#222240"/>
<path d="M266.061 36.2134L278.719 20.9724C278.953 20.6921 278.755 20.264 278.393 20.264H267.317C266.847 20.264 266.465 19.878 266.465 19.4019V17.4492C266.465 16.9731 266.847 16.5872 267.317 16.5872H284.073C284.544 16.5872 284.925 16.9731 284.925 17.4492V19.5555C284.925 19.7571 284.855 19.9529 284.726 20.1084L272.11 35.3494C271.878 35.6297 272.073 36.056 272.436 36.056H284.551C285.022 36.056 285.403 36.4419 285.403 36.918V38.8707C285.403 39.3468 285.022 39.7328 284.551 39.7328H266.714C266.243 39.7328 265.862 39.3468 265.862 38.8707V36.7644C265.862 36.5609 265.932 36.3651 266.061 36.2096V36.2134Z" fill="#222240"/>
<path d="M287.627 28.2702C287.627 20.9646 291.821 16.2395 298.522 16.2395C305.756 16.2395 309.393 21.3793 309.046 28.2318C309.023 28.6926 308.649 29.0593 308.192 29.0593H292.48C292.239 29.0593 292.039 29.2629 292.053 29.5067C292.29 33.9976 294.844 36.5397 298.693 36.5397C301.516 36.5397 303.677 35.2475 304.445 33.172C304.57 32.8321 304.883 32.6037 305.242 32.6037H307.809C308.376 32.6037 308.782 33.1547 308.63 33.7057C307.549 37.6283 303.648 40.1281 298.693 40.1281C291.819 40.1281 287.625 35.403 287.625 28.2702H287.627ZM292.605 25.8645H304.166C304.419 25.8645 304.61 25.6456 304.591 25.3902C304.29 21.4446 301.723 19.7819 298.479 19.7819C295.054 19.7819 292.69 21.8958 292.186 25.3595C292.148 25.6225 292.343 25.8625 292.607 25.8625L292.605 25.8645Z" fill="#222240"/>
<path d="M258.882 12.8336C260.34 12.8336 261.523 11.637 261.523 10.1609C261.523 8.68486 260.34 7.48828 258.882 7.48828C257.423 7.48828 256.241 8.68486 256.241 10.1609C256.241 11.637 257.423 12.8336 258.882 12.8336Z" fill="#222240"/>
</g>
<defs>
<clipPath id="clip0_1_153">
<rect width="310" height="48" fill="white"/>
</clipPath>
</defs>
</svg>
